<?xml version="1.0" encoding="UTF-8"?><svg id="Mezmo" xmlns="http://www.w3.org/2000/svg" viewBox="0 0 122.51 84.62"><path d="M53.79,21.98v51.5c0,6.56,2.95,11.15,9.84,11.15,5.25,0,8.86-3.94,10.82-9.51l18.37-53.14c1.48-4.43,3.77-6.89,8.36-6.89,3.44,0,6.4,2.46,6.4,6.89v60.35c0,.66,.33,.98,.98,.98h12.96c.66,0,.98-.33,.98-.98V21.65c0-12.14-9.35-21.65-20.99-21.65s-18.86,7.05-22.47,17.71l-8.69,25.58c-.33,.98-.49,1.31-.98,1.31s-.66-.33-.66-.66V21.65C68.72,9.51,59.37,0,47.72,0S28.86,7.05,25.26,17.71l-8.69,25.58c-.33,.98-.49,1.31-.98,1.31s-.66-.33-.66-.66V2.3c0-.66-.33-.98-.98-.98H.98c-.66,0-.98,.33-.98,.98V73.47c0,6.56,2.95,11.15,9.84,11.15,5.25,0,8.86-3.94,10.82-9.51L39.03,21.98c1.48-4.1,4.1-6.89,8.36-6.89,3.44,0,6.4,2.46,6.4,6.89Z"/></svg>